<svg width="35" height="35" viewBox="0 0 35 35" fill="none" xmlns="http://www.w3.org/2000/svg">
<path d="M9.52394 26.9342L6.74088 25.0786C6.50491 24.9217 6.23056 24.8387 5.94717 24.8387C5.15854 24.8387 4.51613 25.4806 4.51613 26.2698V30.1819C4.51613 30.971 5.15854 31.6129 5.94717 31.6129C6.23056 31.6129 6.50491 31.5299 6.74088 31.3724L9.52394 29.5169C9.92305 29.251 10.1613 28.8056 10.1613 28.3263V28.1253C10.1613 27.646 9.92305 27.2006 9.52394 26.9342ZM9.03225 28.3263C9.03225 28.4273 8.98201 28.5216 8.89789 28.5775L6.11483 30.4331C5.92741 30.5578 5.64516 30.4082 5.64516 30.1819V26.2698C5.64516 26.1032 5.78064 25.9677 5.94717 25.9677C6.00701 25.9677 6.06516 25.9852 6.11483 26.0186L8.89789 27.8741C8.98201 27.9306 9.03225 28.0243 9.03225 28.1253V28.3263Z" fill="#312F2F"/>
<path d="M33.3064 0H16.371C15.4373 0 14.6774 0.759839 14.6774 1.69355V4.51613H2.25806C1.6354 4.51613 1.12903 5.0225 1.12903 5.64516V24.4893C0.417177 25.5613 0 26.8456 0 28.2258C0 31.9612 3.03879 35 6.77419 35C8.77371 35 10.5683 34.1239 11.8091 32.7419H26.3544C26.9901 34.0748 28.3472 35 29.9194 35C32.0978 35 33.871 33.2274 33.871 31.0484V16.6188C33.871 16.3749 33.8168 16.1299 33.7157 15.9092L33.1467 14.6774H33.3064C34.2402 14.6774 35 13.9176 35 12.9839V1.69355C35 0.759839 34.2402 0 33.3064 0ZM14.6774 5.64516V9.03226H2.25806V5.64516H14.6774ZM6.77419 33.871C3.66145 33.871 1.12903 31.3385 1.12903 28.2258C1.12903 25.1131 3.66145 22.5806 6.77419 22.5806C9.88694 22.5806 12.4194 25.1131 12.4194 28.2258C12.4194 31.3385 9.88694 33.871 6.77419 33.871ZM12.6316 31.6129C13.2114 30.6148 13.5484 29.4604 13.5484 28.2258C13.5484 24.4904 10.5096 21.4516 6.77419 21.4516C5.03831 21.4516 3.45823 22.1132 2.25806 23.1909V10.1613H14.6774V12.9839C14.6774 13.9176 15.4373 14.6774 16.371 14.6774H19.351L20.173 17.1438C20.3576 17.6942 20.8713 18.0645 21.4516 18.0645C22.0319 18.0645 22.5456 17.6942 22.7302 17.1432L23.5522 14.6774H26.692L26.1235 15.9098C26.0219 16.1299 25.9677 16.3755 25.9677 16.6188V31.0484C25.9677 31.2403 25.9864 31.4277 26.0129 31.6129H12.6316ZM28.4567 13.5484H31.382L32.4241 15.8065H27.414L28.4567 13.5484ZM28.9777 12.4194L29.9194 10.3792L30.861 12.4194H28.9777ZM27.0968 16.9355H29.3548V27.0968H27.0968V16.9355ZM27.0968 28.2258H32.7419V29.3548H27.0968V28.2258ZM30.4839 27.0968V16.9355H32.7419V27.0968H30.4839ZM29.9194 33.871C28.363 33.871 27.0968 32.6048 27.0968 31.0484V30.4839H32.7419V31.0484C32.7419 32.6048 31.4757 33.871 29.9194 33.871ZM33.871 12.9839C33.871 13.2949 33.6181 13.5484 33.3064 13.5484H32.6256L29.9194 7.68532L27.2131 13.5484H22.7381L21.6594 16.7853C21.599 16.9648 21.3043 16.9643 21.2439 16.7859L20.1651 13.5484H16.371C16.0594 13.5484 15.8065 13.2949 15.8065 12.9839V1.69355C15.8065 1.3825 16.0594 1.12903 16.371 1.12903H33.3064C33.6181 1.12903 33.871 1.3825 33.871 1.69355V12.9839Z" fill="#312F2F"/>
<path d="M27.9357 4.94399L25.5399 2.54819L24.8387 3.24988V2.25803H21.4516V3.25045L20.7505 2.54819L18.3547 4.94399L19.0569 5.64512H18.0645V9.03222H19.0569L18.3547 9.73391L20.7505 12.1297L21.4516 11.4275V12.4193H24.8387V11.4269L25.5399 12.1292L27.9357 9.73335L27.2334 9.03222H28.2258V5.64512H27.2334L27.9357 4.94399ZM27.0968 7.91166C26.6954 7.95964 26.3482 8.21932 26.1907 8.60037C26.0332 8.98085 26.0948 9.40988 26.3443 9.72827L25.5342 10.5383C25.2164 10.2894 24.7879 10.2279 24.4063 10.3848C24.0258 10.5423 23.7661 10.8895 23.7176 11.2908H22.5722C22.5236 10.8895 22.264 10.5423 21.8835 10.3848C21.5024 10.2273 21.074 10.2888 20.7556 10.5383L19.9455 9.72827C20.195 9.41045 20.2571 8.98141 20.099 8.60037C19.9421 8.21932 19.5949 7.95964 19.1936 7.91166V6.76625C19.5949 6.71827 19.9421 6.45859 20.0996 6.07754C20.2571 5.69706 20.1956 5.26803 19.9461 4.94964L20.7561 4.13956C21.074 4.38907 21.503 4.45117 21.884 4.29311C22.2645 4.13561 22.5242 3.78843 22.5728 3.38706H23.7182C23.7667 3.78843 24.0264 4.13561 24.4069 4.29311C24.7874 4.45004 25.2158 4.38851 25.5348 4.13956L26.3449 4.94964C26.0953 5.26746 26.0332 5.69649 26.1913 6.07754C26.3488 6.45859 26.6965 6.71827 27.0974 6.76625V7.91166H27.0968Z" fill="#312F2F"/>
<path d="M23.1452 4.51614C21.5888 4.51614 20.3226 5.78235 20.3226 7.33872C20.3226 8.89509 21.5888 10.1613 23.1452 10.1613C24.7015 10.1613 25.9677 8.89509 25.9677 7.33872C25.9677 5.78235 24.7015 4.51614 23.1452 4.51614ZM23.1452 9.03227C22.2115 9.03227 21.4516 8.27243 21.4516 7.33872C21.4516 6.40501 22.2115 5.64518 23.1452 5.64518C24.0789 5.64518 24.8387 6.40501 24.8387 7.33872C24.8387 8.27243 24.0789 9.03227 23.1452 9.03227Z" fill="#312F2F"/>
<path d="M3.95162 6.7742H5.08065V7.90323H3.95162V6.7742Z" fill="#312F2F"/>
<path d="M6.20968 6.7742H7.33871V7.90323H6.20968V6.7742Z" fill="#312F2F"/>
<path d="M8.46775 6.7742H9.59678V7.90323H8.46775V6.7742Z" fill="#312F2F"/>
<path d="M15.8065 28.2258H16.9355V29.3548H15.8065V28.2258Z" fill="#312F2F"/>
<path d="M19.1936 28.2258H20.3226V29.3548H19.1936V28.2258Z" fill="#312F2F"/>
<path d="M22.5806 28.2258H23.7097V29.3548H22.5806V28.2258Z" fill="#312F2F"/>
<path d="M12.4194 11.2903H4.51613C3.89347 11.2903 3.3871 11.7967 3.3871 12.4193V19.1935C3.3871 19.8162 3.89347 20.3226 4.51613 20.3226H12.4194C13.042 20.3226 13.5484 19.8162 13.5484 19.1935V12.4193C13.5484 11.7967 13.042 11.2903 12.4194 11.2903ZM4.51613 12.4193H12.4194L12.4199 18.6939L10.3747 15.4214C10.0834 14.9557 9.58154 14.6774 9.03226 14.6774C8.48299 14.6774 7.98113 14.9557 7.68984 15.4214L5.33242 19.1935H4.51613V12.4193ZM11.401 19.1935H6.66299L8.6467 16.0198C8.81436 15.7522 9.2496 15.7528 9.41726 16.0198L11.401 19.1935Z" fill="#312F2F"/>
<path d="M5.64516 13.5484H6.77419V14.6774H5.64516V13.5484Z" fill="#312F2F"/>
<path d="M15.8065 19.1935H18.0645V20.3226H15.8065V19.1935Z" fill="#312F2F"/>
<path d="M19.1936 19.1935H23.7097V20.3226H19.1936V19.1935Z" fill="#312F2F"/>
<path d="M15.8065 21.4516H23.7097V22.5807H15.8065V21.4516Z" fill="#312F2F"/>
<path d="M15.8065 23.7097H23.7097V24.8387H15.8065V23.7097Z" fill="#312F2F"/>
<path d="M15.8065 25.9677H23.7097V27.0968H15.8065V25.9677Z" fill="#312F2F"/>
</svg>
