<svg width="32" height="32" viewBox="0 0 32 32" fill="none" xmlns="http://www.w3.org/2000/svg">
<path d="M28.5 3H25.5V2.5C25.5 2.10218 25.342 1.72064 25.0607 1.43934C24.7794 1.15804 24.3978 1 24 1C23.6022 1 23.2206 1.15804 22.9393 1.43934C22.658 1.72064 22.5 2.10218 22.5 2.5V3H17.5V2.5C17.5 2.10218 17.342 1.72064 17.0607 1.43934C16.7794 1.15804 16.3978 1 16 1C15.6022 1 15.2206 1.15804 14.9393 1.43934C14.658 1.72064 14.5 2.10218 14.5 2.5V3H9.5V2.5C9.5 2.10218 9.34196 1.72064 9.06066 1.43934C8.77936 1.15804 8.39782 1 8 1C7.60218 1 7.22064 1.15804 6.93934 1.43934C6.65804 1.72064 6.5 2.10218 6.5 2.5V3H3.5C2.83719 3.00074 2.20173 3.26438 1.73306 3.73306C1.26438 4.20173 1.00074 4.83719 1 5.5V28.5C1.00074 29.1628 1.26438 29.7983 1.73306 30.2669C2.20173 30.7356 2.83719 30.9993 3.5 31H28.5C29.1628 30.9993 29.7983 30.7356 30.2669 30.2669C30.7356 29.7983 30.9993 29.1628 31 28.5V5.5C30.9993 4.83719 30.7356 4.20173 30.2669 3.73306C29.7983 3.26438 29.1628 3.00074 28.5 3ZM23.5 2.5C23.5 2.36739 23.5527 2.24021 23.6464 2.14645C23.7402 2.05268 23.8674 2 24 2C24.1326 2 24.2598 2.05268 24.3536 2.14645C24.4473 2.24021 24.5 2.36739 24.5 2.5V5.5C24.5 5.63261 24.4473 5.75979 24.3536 5.85355C24.2598 5.94732 24.1326 6 24 6C23.8674 6 23.7402 5.94732 23.6464 5.85355C23.5527 5.75979 23.5 5.63261 23.5 5.5V2.5ZM15.5 2.5C15.5 2.36739 15.5527 2.24021 15.6464 2.14645C15.7402 2.05268 15.8674 2 16 2C16.1326 2 16.2598 2.05268 16.3536 2.14645C16.4473 2.24021 16.5 2.36739 16.5 2.5V5.5C16.5 5.63261 16.4473 5.75979 16.3536 5.85355C16.2598 5.94732 16.1326 6 16 6C15.8674 6 15.7402 5.94732 15.6464 5.85355C15.5527 5.75979 15.5 5.63261 15.5 5.5V2.5ZM7.5 2.5C7.5 2.36739 7.55268 2.24021 7.64645 2.14645C7.74021 2.05268 7.86739 2 8 2C8.13261 2 8.25979 2.05268 8.35355 2.14645C8.44732 2.24021 8.5 2.36739 8.5 2.5V5.5C8.5 5.63261 8.44732 5.75979 8.35355 5.85355C8.25979 5.94732 8.13261 6 8 6C7.86739 6 7.74021 5.94732 7.64645 5.85355C7.55268 5.75979 7.5 5.63261 7.5 5.5V2.5ZM3.5 4H6.5V5.5C6.5 5.89782 6.65804 6.27936 6.93934 6.56066C7.22064 6.84196 7.60218 7 8 7C8.39782 7 8.77936 6.84196 9.06066 6.56066C9.34196 6.27936 9.5 5.89782 9.5 5.5V4H14.5V5.5C14.5 5.89782 14.658 6.27936 14.9393 6.56066C15.2206 6.84196 15.6022 7 16 7C16.3978 7 16.7794 6.84196 17.0607 6.56066C17.342 6.27936 17.5 5.89782 17.5 5.5V4H22.5V5.5C22.5 5.89782 22.658 6.27936 22.9393 6.56066C23.2206 6.84196 23.6022 7 24 7C24.3978 7 24.7794 6.84196 25.0607 6.56066C25.342 6.27936 25.5 5.89782 25.5 5.5V4H28.5C28.8977 4.00046 29.2789 4.15865 29.5601 4.43985C29.8414 4.72106 29.9995 5.10232 30 5.5V9H2V5.5C2.00046 5.10232 2.15865 4.72106 2.43985 4.43985C2.72106 4.15865 3.10232 4.00046 3.5 4ZM28.5 30H3.5C3.10232 29.9995 2.72106 29.8414 2.43985 29.5601C2.15865 29.2789 2.00046 28.8977 2 28.5V10H30V28.5C29.9995 28.8977 29.8414 29.2789 29.5601 29.5601C29.2789 29.8414 28.8977 29.9995 28.5 30Z" fill="#312F2F"/>
<path d="M27.5 13.5H25.5C25.3674 13.5 25.2402 13.5527 25.1464 13.6464C25.0527 13.7402 25 13.8674 25 14V16C25 16.1326 25.0527 16.2598 25.1464 16.3536C25.2402 16.4473 25.3674 16.5 25.5 16.5H27.5C27.6326 16.5 27.7598 16.4473 27.8536 16.3536C27.9473 16.2598 28 16.1326 28 16V14C28 13.8674 27.9473 13.7402 27.8536 13.6464C27.7598 13.5527 27.6326 13.5 27.5 13.5ZM27 15.5H26V14.5H27V15.5Z" fill="#312F2F"/>
<path d="M17.5 23.5H15.5C15.3674 23.5 15.2402 23.5527 15.1464 23.6464C15.0527 23.7402 15 23.8674 15 24V26C15 26.1326 15.0527 26.2598 15.1464 26.3536C15.2402 26.4473 15.3674 26.5 15.5 26.5H17.5C17.6326 26.5 17.7598 26.4473 17.8536 26.3536C17.9473 26.2598 18 26.1326 18 26V24C18 23.8674 17.9473 23.7402 17.8536 23.6464C17.7598 23.5527 17.6326 23.5 17.5 23.5ZM17 25.5H16V24.5H17V25.5Z" fill="#312F2F"/>
<path d="M12.5 13.5H10.5C10.3674 13.5 10.2402 13.5527 10.1464 13.6464C10.0527 13.7402 10 13.8674 10 14V16C10 16.1326 10.0527 16.2598 10.1464 16.3536C10.2402 16.4473 10.3674 16.5 10.5 16.5H12.5C12.6326 16.5 12.7598 16.4473 12.8536 16.3536C12.9473 16.2598 13 16.1326 13 16V14C13 13.8674 12.9473 13.7402 12.8536 13.6464C12.7598 13.5527 12.6326 13.5 12.5 13.5ZM12 15.5H11V14.5H12V15.5Z" fill="#312F2F"/>
<path d="M7.5 18.5H5.5C5.36739 18.5 5.24021 18.5527 5.14645 18.6464C5.05268 18.7402 5 18.8674 5 19V21C5 21.1326 5.05268 21.2598 5.14645 21.3536C5.24021 21.4473 5.36739 21.5 5.5 21.5H7.5C7.63261 21.5 7.75979 21.4473 7.85355 21.3536C7.94732 21.2598 8 21.1326 8 21V19C8 18.8674 7.94732 18.7402 7.85355 18.6464C7.75979 18.5527 7.63261 18.5 7.5 18.5ZM7 20.5H6V19.5H7V20.5Z" fill="#312F2F"/>
<path d="M12.5 18.5H10.5C10.3674 18.5 10.2402 18.5527 10.1464 18.6464C10.0527 18.7402 10 18.8674 10 19V21C10 21.1326 10.0527 21.2598 10.1464 21.3536C10.2402 21.4473 10.3674 21.5 10.5 21.5H12.5C12.6326 21.5 12.7598 21.4473 12.8536 21.3536C12.9473 21.2598 13 21.1326 13 21V19C13 18.8674 12.9473 18.7402 12.8536 18.6464C12.7598 18.5527 12.6326 18.5 12.5 18.5ZM12 20.5H11V19.5H12V20.5Z" fill="#312F2F"/>
<path d="M7.5 23.5H5.5C5.36739 23.5 5.24021 23.5527 5.14645 23.6464C5.05268 23.7402 5 23.8674 5 24V26C5 26.1326 5.05268 26.2598 5.14645 26.3536C5.24021 26.4473 5.36739 26.5 5.5 26.5H7.5C7.63261 26.5 7.75979 26.4473 7.85355 26.3536C7.94732 26.2598 8 26.1326 8 26V24C8 23.8674 7.94732 23.7402 7.85355 23.6464C7.75979 23.5527 7.63261 23.5 7.5 23.5ZM7 25.5H6V24.5H7V25.5Z" fill="#312F2F"/>
<path d="M12.5 23.5H10.5C10.3674 23.5 10.2402 23.5527 10.1464 23.6464C10.0527 23.7402 10 23.8674 10 24V26C10 26.1326 10.0527 26.2598 10.1464 26.3536C10.2402 26.4473 10.3674 26.5 10.5 26.5H12.5C12.6326 26.5 12.7598 26.4473 12.8536 26.3536C12.9473 26.2598 13 26.1326 13 26V24C13 23.8674 12.9473 23.7402 12.8536 23.6464C12.7598 23.5527 12.6326 23.5 12.5 23.5ZM12 25.5H11V24.5H12V25.5Z" fill="#312F2F"/>
<path d="M23.0755 15.5615L20.5755 15.1795L19.4526 12.7875C19.4123 12.7016 19.3483 12.6289 19.2681 12.5779C19.188 12.527 19.095 12.5 19 12.5C18.905 12.5 18.812 12.527 18.7319 12.5779C18.6517 12.6289 18.5877 12.7016 18.5474 12.7875L17.425 15.1795L14.925 15.5615C14.8341 15.5753 14.7487 15.614 14.6783 15.6732C14.608 15.7324 14.5553 15.8099 14.5261 15.8971C14.4969 15.9843 14.4923 16.0779 14.5129 16.1675C14.5335 16.2572 14.5783 16.3394 14.6426 16.4052L16.4664 18.2744L16.0352 20.9198C16.0203 21.0123 16.0316 21.1071 16.068 21.1934C16.1043 21.2797 16.1642 21.3541 16.2407 21.4081C16.3173 21.4621 16.4075 21.4934 16.501 21.4986C16.5946 21.5038 16.6877 21.4827 16.7698 21.4375L19 20.2048L21.2302 21.4375C21.3124 21.4829 21.4056 21.5043 21.4993 21.4992C21.593 21.4941 21.6834 21.4627 21.7601 21.4087C21.8368 21.3546 21.8968 21.2801 21.9331 21.1936C21.9695 21.1071 21.9807 21.0121 21.9656 20.9195L21.5344 18.2741L23.3582 16.4049C23.4225 16.3391 23.4673 16.2569 23.4879 16.1672C23.5085 16.0776 23.5039 15.984 23.4747 15.8968C23.4455 15.8096 23.3928 15.7321 23.3225 15.6729C23.2521 15.6136 23.1667 15.575 23.0758 15.5612L23.0755 15.5615ZM20.6421 17.7563C20.5875 17.8123 20.5467 17.8803 20.5232 17.955C20.4996 18.0296 20.4939 18.1087 20.5065 18.186L20.8127 20.0642L19.2417 19.1954C19.1677 19.1545 19.0845 19.133 18.9999 19.133C18.9153 19.133 18.832 19.1545 18.758 19.1954L17.187 20.0642L17.4932 18.186C17.5058 18.1087 17.5001 18.0296 17.4766 17.955C17.453 17.8803 17.4123 17.8123 17.3576 17.7563L16.0375 16.403L17.8396 16.128C17.9207 16.1156 17.9976 16.0834 18.0633 16.0343C18.1291 15.9851 18.1817 15.9205 18.2166 15.8462L19 14.1768L19.7834 15.8459C19.8183 15.9202 19.871 15.9848 19.9367 16.034C20.0025 16.0831 20.0793 16.1153 20.1605 16.1277L21.9626 16.4027L20.6421 17.7563Z" fill="#312F2F"/>
<path d="M27.5 18.5H25.5C25.3674 18.5 25.2402 18.5527 25.1464 18.6464C25.0527 18.7402 25 18.8674 25 19V21C25 21.1326 25.0527 21.2598 25.1464 21.3536C25.2402 21.4473 25.3674 21.5 25.5 21.5H27.5C27.6326 21.5 27.7598 21.4473 27.8536 21.3536C27.9473 21.2598 28 21.1326 28 21V19C28 18.8674 27.9473 18.7402 27.8536 18.6464C27.7598 18.5527 27.6326 18.5 27.5 18.5ZM27 20.5H26V19.5H27V20.5Z" fill="#312F2F"/>
<path d="M27.5 23.5H25.5C25.3674 23.5 25.2402 23.5527 25.1464 23.6464C25.0527 23.7402 25 23.8674 25 24V26C25 26.1326 25.0527 26.2598 25.1464 26.3536C25.2402 26.4473 25.3674 26.5 25.5 26.5H27.5C27.6326 26.5 27.7598 26.4473 27.8536 26.3536C27.9473 26.2598 28 26.1326 28 26V24C28 23.8674 27.9473 23.7402 27.8536 23.6464C27.7598 23.5527 27.6326 23.5 27.5 23.5ZM27 25.5H26V24.5H27V25.5Z" fill="#312F2F"/>
<path d="M22.5 23.5H20.5C20.3674 23.5 20.2402 23.5527 20.1464 23.6464C20.0527 23.7402 20 23.8674 20 24V26C20 26.1326 20.0527 26.2598 20.1464 26.3536C20.2402 26.4473 20.3674 26.5 20.5 26.5H22.5C22.6326 26.5 22.7598 26.4473 22.8536 26.3536C22.9473 26.2598 23 26.1326 23 26V24C23 23.8674 22.9473 23.7402 22.8536 23.6464C22.7598 23.5527 22.6326 23.5 22.5 23.5ZM22 25.5H21V24.5H22V25.5Z" fill="#312F2F"/>
</svg>
