<svg width="30" height="30" viewBox="0 0 30 30" fill="none" xmlns="http://www.w3.org/2000/svg">
<path d="M19.5 15C19.5 16.1935 19.0259 17.3381 18.182 18.182C17.3381 19.0259 16.1935 19.5 15 19.5C13.8066 19.5 12.662 19.0259 11.8181 18.182C10.9741 17.3381 10.5 16.1935 10.5 15C10.5 14.7435 10.527 14.493 10.5735 14.25H9.00004V20.2455C9.00004 20.6625 9.33754 21 9.75454 21H20.247C20.4469 20.9996 20.6384 20.92 20.7796 20.7785C20.9208 20.6371 21 20.4454 21 20.2455V14.25H19.4265C19.473 14.493 19.5 14.7435 19.5 15V15ZM15 18C15.3941 17.9999 15.7843 17.9222 16.1483 17.7713C16.5123 17.6204 16.8431 17.3993 17.1217 17.1206C17.4002 16.8419 17.6212 16.511 17.7719 16.1469C17.9226 15.7828 18.0001 15.3926 18 14.9985C17.9999 14.6045 17.9222 14.2143 17.7713 13.8503C17.6204 13.4862 17.3993 13.1555 17.1206 12.8769C16.8419 12.5983 16.511 12.3774 16.1469 12.2267C15.7828 12.076 15.3926 11.9984 14.9985 11.9985C14.2027 11.9987 13.4395 12.3151 12.8769 12.878C12.3143 13.4409 11.9983 14.2042 11.9985 15C11.9987 15.7959 12.3151 16.5591 12.878 17.1217C13.4409 17.6843 14.2042 18.0002 15 18V18ZM18.6 11.85H20.3985C20.518 11.85 20.6326 11.8027 20.7173 11.7183C20.8019 11.634 20.8496 11.5195 20.85 11.4V9.60154C20.85 9.48179 20.8025 9.36695 20.7178 9.28228C20.6331 9.19761 20.5183 9.15004 20.3985 9.15004H18.6C18.4803 9.15004 18.3655 9.19761 18.2808 9.28228C18.1961 9.36695 18.1485 9.48179 18.1485 9.60154V11.4C18.15 11.6475 18.3525 11.85 18.6 11.85V11.85ZM15 0.600037C11.1809 0.600037 7.51822 2.11717 4.8177 4.8177C2.11717 7.51822 0.600037 11.1809 0.600037 15C0.600037 18.8192 2.11717 22.4819 4.8177 25.1824C7.51822 27.8829 11.1809 29.4 15 29.4C16.8911 29.4 18.7636 29.0276 20.5107 28.3039C22.2578 27.5802 23.8452 26.5195 25.1824 25.1824C26.5195 23.8452 27.5802 22.2578 28.3039 20.5107C29.0276 18.7636 29.4 16.8911 29.4 15C29.4 13.109 29.0276 11.2365 28.3039 9.4894C27.5802 7.74231 26.5195 6.15486 25.1824 4.8177C23.8452 3.48054 22.2578 2.41984 20.5107 1.69617C18.7636 0.972504 16.8911 0.600037 15 0.600037V0.600037ZM22.5 20.8335C22.5 21.75 21.75 22.5 20.8335 22.5H9.16654C8.25004 22.5 7.50004 21.75 7.50004 20.8335V9.16654C7.50004 8.25004 8.25004 7.50004 9.16654 7.50004H20.8335C21.75 7.50004 22.5 8.25004 22.5 9.16654V20.8335V20.8335Z" fill="#312F2F"/>
</svg>