<svg width="35" height="35" viewBox="0 0 35 35" fill="none" xmlns="http://www.w3.org/2000/svg">
<path d="M26.508 1.24594H9.52238C9.49348 1.24624 9.46466 1.24908 9.43625 1.25442C9.43324 1.25442 9.43023 1.25442 9.42723 1.25442C9.38722 1.26296 9.34851 1.27676 9.31211 1.29543C9.30254 1.30008 9.29379 1.305 9.28477 1.31047C9.24813 1.33088 9.2143 1.35597 9.18414 1.38512L2.95305 7.61758C2.92348 7.64798 2.8981 7.68219 2.87758 7.7193C2.87293 7.72778 2.86828 7.73598 2.86391 7.74473C2.84496 7.78177 2.8309 7.82111 2.82207 7.86176V7.86668C2.81628 7.89614 2.81326 7.92608 2.81305 7.9561V33.2764C2.81301 33.3393 2.82537 33.4015 2.8494 33.4596C2.87344 33.5176 2.90868 33.5704 2.95312 33.6149C2.99756 33.6593 3.05033 33.6945 3.1084 33.7186C3.16647 33.7426 3.22872 33.755 3.29156 33.7549H26.508C26.635 33.7549 26.7567 33.7045 26.8464 33.6148C26.9361 33.525 26.9866 33.4033 26.9866 33.2764V1.72446C26.9866 1.59755 26.9361 1.47583 26.8464 1.3861C26.7567 1.29636 26.635 1.24594 26.508 1.24594ZM9.04387 2.87973V7.47758H4.44602L9.04387 2.87973ZM26.0295 32.7968H3.76926V8.43352H9.52238C9.64927 8.43345 9.77094 8.38301 9.86066 8.29329C9.95039 8.20356 10.0008 8.08189 10.0009 7.955V2.20297H26.0295V32.7968Z" fill="#312F2F"/>
<path d="M32.1834 9.33633C32.1834 9.32457 32.1834 9.31282 32.1818 9.30106L31.7656 6.47153C31.7492 6.35764 31.6922 6.2535 31.6053 6.17817C31.5183 6.10284 31.4071 6.06137 31.292 6.06137H29.5519C29.4368 6.06137 29.3256 6.10284 29.2386 6.17817C29.1516 6.2535 29.0947 6.35764 29.0783 6.47153L28.6621 9.30106C28.6604 9.31282 28.6621 9.32457 28.6604 9.33633C28.6588 9.34809 28.6572 9.35875 28.6572 9.37078V24.7251C28.6572 24.7352 28.6594 24.7445 28.6599 24.7541C28.6607 24.7707 28.6624 24.7872 28.6651 24.8036C28.668 24.8206 28.6719 24.8374 28.6769 24.8539C28.6793 24.8629 28.6801 24.8722 28.6831 24.8813L29.9683 28.6142C30.0008 28.7084 30.0618 28.7901 30.1429 28.8479C30.224 28.9057 30.3211 28.9368 30.4207 28.9368C30.5203 28.9368 30.6174 28.9057 30.6985 28.8479C30.7796 28.7901 30.8407 28.7084 30.8731 28.6142L32.1615 24.8826C32.1646 24.8736 32.1654 24.8643 32.1678 24.8553C32.1727 24.8388 32.1767 24.822 32.1796 24.805C32.1823 24.7886 32.184 24.7721 32.1848 24.7555C32.1848 24.7459 32.1875 24.7366 32.1875 24.7265V9.37078C32.1875 9.35875 32.1851 9.34782 32.1834 9.33633ZM31.2297 18.6228H29.6142V9.8493H31.2297V18.6228ZM29.6142 19.5798H31.2297V24.2466H29.6142V19.5798ZM30.8788 7.01977L31.1542 8.89227H29.6897L29.965 7.01977H30.8788ZM30.4219 26.9895L29.8067 25.2036H31.0372L30.4219 26.9895Z" fill="#312F2F"/>
<path d="M21.7285 14.1837H8.07031C7.9434 14.1837 7.82169 14.2341 7.73195 14.3238C7.64221 14.4135 7.5918 14.5353 7.5918 14.6622C7.5918 14.7891 7.64221 14.9108 7.73195 15.0005C7.82169 15.0903 7.9434 15.1407 8.07031 15.1407H21.7285C21.8554 15.1407 21.9771 15.0903 22.0669 15.0005C22.1566 14.9108 22.207 14.7891 22.207 14.6622C22.207 14.5353 22.1566 14.4135 22.0669 14.3238C21.9771 14.2341 21.8554 14.1837 21.7285 14.1837Z" fill="#312F2F"/>
<path d="M21.7285 17.1717H8.07031C7.9434 17.1717 7.82169 17.2221 7.73195 17.3119C7.64221 17.4016 7.5918 17.5233 7.5918 17.6502C7.5918 17.7772 7.64221 17.8989 7.73195 17.9886C7.82169 18.0784 7.9434 18.1288 8.07031 18.1288H21.7285C21.8554 18.1288 21.9771 18.0784 22.0669 17.9886C22.1566 17.8989 22.207 17.7772 22.207 17.6502C22.207 17.5233 22.1566 17.4016 22.0669 17.3119C21.9771 17.2221 21.8554 17.1717 21.7285 17.1717Z" fill="#312F2F"/>
<path d="M21.7285 11.1947H8.07031C7.9434 11.1947 7.82169 11.2451 7.73195 11.3349C7.64221 11.4246 7.5918 11.5463 7.5918 11.6732C7.5918 11.8002 7.64221 11.9219 7.73195 12.0116C7.82169 12.1013 7.9434 12.1518 8.07031 12.1518H21.7285C21.8554 12.1518 21.9771 12.1013 22.0669 12.0116C22.1566 11.9219 22.207 11.8002 22.207 11.6732C22.207 11.5463 22.1566 11.4246 22.0669 11.3349C21.9771 11.2451 21.8554 11.1947 21.7285 11.1947Z" fill="#312F2F"/>
<path d="M14.4612 6.05283H21.7283C21.8552 6.05283 21.977 6.00241 22.0667 5.91267C22.1564 5.82293 22.2068 5.70122 22.2068 5.57431C22.2068 5.4474 22.1564 5.32569 22.0667 5.23595C21.977 5.14621 21.8552 5.09579 21.7283 5.09579H14.4612C14.3343 5.09579 14.2126 5.14621 14.1228 5.23595C14.0331 5.32569 13.9827 5.4474 13.9827 5.57431C13.9827 5.70122 14.0331 5.82293 14.1228 5.91267C14.2126 6.00241 14.3343 6.05283 14.4612 6.05283Z" fill="#312F2F"/>
<path d="M9.89551 24.8329H8.07031C7.9434 24.8329 7.82169 24.8834 7.73195 24.9731C7.64221 25.0628 7.5918 25.1846 7.5918 25.3115V29.4253C7.59176 29.4882 7.60411 29.5504 7.62815 29.6085C7.65218 29.6665 7.68743 29.7193 7.73187 29.7638C7.77631 29.8082 7.82908 29.8434 7.88715 29.8675C7.94522 29.8915 8.00746 29.9039 8.07031 29.9038H9.89551C10.0224 29.9038 10.1441 29.8534 10.2339 29.7637C10.3236 29.6739 10.374 29.5522 10.374 29.4253V25.3115C10.374 25.1846 10.3235 25.0629 10.2338 24.9732C10.1441 24.8835 10.0224 24.833 9.89551 24.8329ZM9.41699 28.9468H8.54883V25.79H9.41699V28.9468Z" fill="#312F2F"/>
<path d="M13.8397 21.9428H12.0145C11.9516 21.9428 11.8894 21.9553 11.8313 21.9794C11.7732 22.0035 11.7205 22.0388 11.676 22.0832C11.6316 22.1277 11.5963 22.1805 11.5723 22.2386C11.5483 22.2967 11.5359 22.359 11.536 22.4219V29.426C11.536 29.5529 11.5864 29.6746 11.6761 29.7643C11.7659 29.8541 11.8876 29.9045 12.0145 29.9045H13.8397C13.9025 29.9045 13.9648 29.8922 14.0228 29.8681C14.0809 29.8441 14.1337 29.8089 14.1781 29.7644C14.2226 29.72 14.2578 29.6672 14.2818 29.6091C14.3059 29.5511 14.3182 29.4888 14.3182 29.426V22.4219C14.3183 22.359 14.3059 22.2967 14.2819 22.2386C14.2579 22.1805 14.2227 22.1276 14.1782 22.0832C14.1338 22.0387 14.081 22.0034 14.0229 21.9793C13.9648 21.9552 13.9026 21.9428 13.8397 21.9428ZM13.3612 28.9469H12.493V22.8998H13.3612V28.9469Z" fill="#312F2F"/>
<path d="M17.7842 23.0584H15.9587C15.8318 23.0584 15.7101 23.1089 15.6203 23.1986C15.5306 23.2883 15.4802 23.41 15.4802 23.537V29.4254C15.4802 29.5523 15.5306 29.674 15.6203 29.7638C15.7101 29.8535 15.8318 29.9039 15.9587 29.9039H17.7842C17.9111 29.9039 18.0328 29.8535 18.1225 29.7638C18.2123 29.674 18.2627 29.5523 18.2627 29.4254V23.537C18.2627 23.41 18.2123 23.2883 18.1225 23.1986C18.0328 23.1089 17.9111 23.0584 17.7842 23.0584ZM17.3057 28.9469H16.4372V24.0155H17.3057V28.9469Z" fill="#312F2F"/>
<path d="M21.7285 19.949H19.9036C19.7767 19.949 19.655 19.9994 19.5652 20.0892C19.4755 20.1789 19.4251 20.3006 19.4251 20.4275V29.4253C19.425 29.4881 19.4374 29.5503 19.4614 29.6084C19.4855 29.6665 19.5207 29.7193 19.5652 29.7637C19.6096 29.8081 19.6624 29.8434 19.7204 29.8674C19.7785 29.8915 19.8407 29.9038 19.9036 29.9038H21.7285C21.7914 29.9038 21.8536 29.8915 21.9117 29.8674C21.9698 29.8434 22.0225 29.8081 22.067 29.7637C22.1114 29.7193 22.1467 29.6665 22.1707 29.6084C22.1947 29.5503 22.2071 29.4881 22.207 29.4253V20.4275C22.207 20.3006 22.1566 20.1789 22.0669 20.0892C21.9771 19.9994 21.8554 19.949 21.7285 19.949ZM21.25 28.9467H20.3821V20.906H21.25V28.9467Z" fill="#312F2F"/>
</svg>
