<svg width="40" height="40" viewBox="0 0 40 40" fill="none" xmlns="http://www.w3.org/2000/svg">
<path d="M8.10046 14.799L10.9425 14.8068L11.5649 16.0937L10.9413 17.3828L8.11319 17.4135C8.02858 17.4144 7.94578 17.4382 7.8736 17.4824C7.80142 17.5266 7.74254 17.5894 7.70321 17.6644C7.66388 17.7393 7.64557 17.8235 7.65021 17.908C7.65486 17.9925 7.68229 18.0741 7.7296 18.1443C8.06476 18.641 8.5164 19.0482 9.0451 19.3302C9.5738 19.6123 10.1635 19.7607 10.7627 19.7624C11.0117 19.7624 11.26 19.7373 11.5039 19.6875C12.4468 19.4975 13.2763 18.9423 13.8113 18.143C14.1551 18.1012 14.6177 18.0492 15.1745 17.9963L15.5387 18.8182C15.5779 18.9065 15.6434 18.9805 15.7263 19.0302C15.8091 19.0799 15.9053 19.1028 16.0016 19.0958L16.5154 19.058C16.7209 19.2968 16.95 19.5143 17.1991 19.7072L17.1882 20.2284C17.1862 20.3244 17.2137 20.4186 17.2669 20.4984C17.3202 20.5782 17.3967 20.6398 17.486 20.6748L18.7692 21.1769C18.8596 21.2122 18.9586 21.2187 19.0528 21.1953C19.1469 21.172 19.2315 21.12 19.2949 21.0466L19.6344 20.6531C19.9494 20.6807 20.2665 20.6731 20.5798 20.6302L20.9342 21.0061C21.0008 21.0767 21.0876 21.125 21.1828 21.1442C21.278 21.1633 21.3767 21.1525 21.4655 21.1131L22.7247 20.5552C22.813 20.5161 22.8871 20.4506 22.9368 20.3677C22.9865 20.2848 23.0094 20.1886 23.0023 20.0922L22.9645 19.5785C23.2032 19.373 23.4207 19.1439 23.6136 18.8948L24.1348 18.9057C24.2308 18.9079 24.3252 18.8805 24.405 18.8273C24.4849 18.774 24.5464 18.6974 24.5812 18.6079L24.817 18.0055C25.4863 18.0828 25.9793 18.1577 26.2277 18.1981C26.5708 18.6874 27.0282 19.0855 27.5603 19.3577C28.0923 19.6298 28.6828 19.7679 29.2803 19.7597C29.8779 19.7516 30.4644 19.5976 30.9889 19.3111C31.5133 19.0246 31.9598 18.6143 32.2895 18.1158C32.3362 18.0453 32.3628 17.9634 32.3667 17.879C32.3706 17.7945 32.3516 17.7105 32.3116 17.636C32.2717 17.5615 32.2123 17.4991 32.1398 17.4556C32.0673 17.412 31.9844 17.3889 31.8998 17.3887L29.0578 17.3809L28.4351 16.0937L29.0587 14.8047L31.8868 14.774C31.9714 14.7731 32.0542 14.7493 32.1264 14.7051C32.1986 14.6609 32.2575 14.598 32.2968 14.5231C32.3361 14.4482 32.3544 14.364 32.3498 14.2795C32.3451 14.195 32.3177 14.1134 32.2704 14.0432C31.9384 13.5506 31.4916 13.146 30.9686 12.8643C30.4456 12.5826 29.8619 12.4323 29.2679 12.4262C28.6738 12.4201 28.0872 12.5585 27.5585 12.8295C27.0298 13.1004 26.5749 13.4957 26.2329 13.9815C25.7607 14.044 25.2754 14.1065 24.8125 14.1619L24.4614 13.3696C24.4223 13.2813 24.3568 13.2072 24.2739 13.1575C24.1911 13.1078 24.0949 13.0849 23.9985 13.0919L23.4848 13.1298C23.2793 12.8909 23.0502 12.6734 22.8011 12.4805L22.812 11.9593C22.814 11.8634 22.7865 11.7691 22.7332 11.6893C22.68 11.6095 22.6035 11.5479 22.5141 11.513L21.231 11.0108C21.1407 10.9755 21.0416 10.969 20.9474 10.9924C20.8533 11.0157 20.7687 11.0677 20.7053 11.1411L20.3657 11.5345C20.0507 11.507 19.7337 11.5147 19.4204 11.5574L19.066 11.1816C18.9994 11.1109 18.9126 11.0627 18.8174 11.0435C18.7223 11.0243 18.6235 11.0352 18.5348 11.0745L17.2755 11.6324C17.1872 11.6716 17.1131 11.7371 17.0634 11.8199C17.0136 11.9028 16.9908 11.9991 16.9979 12.0955L17.0358 12.6092C16.7969 12.8147 16.5794 13.0438 16.3865 13.293L15.8652 13.2821C15.7693 13.2803 15.6752 13.3078 15.5954 13.361C15.5156 13.4143 15.454 13.4907 15.4189 13.5799L15.1798 14.1908C14.7224 14.1467 14.2636 14.097 13.8086 14.0413C13.4712 13.5414 13.0156 13.1325 12.4823 12.8508C11.949 12.5691 11.3545 12.4233 10.7514 12.4263C10.1483 12.4293 9.55521 12.5811 9.02478 12.8682C8.49436 13.1552 8.04294 13.5687 7.71054 14.0719C7.66391 14.1425 7.63724 14.2243 7.63335 14.3088C7.62946 14.3933 7.6485 14.4773 7.68844 14.5518C7.72839 14.6263 7.78775 14.6887 7.86024 14.7322C7.93274 14.7758 8.01566 14.7989 8.10023 14.7991L8.10046 14.799ZM26.952 14.588C27.149 14.2883 27.4034 14.0306 27.7006 13.8298C27.9978 13.6291 28.3319 13.4893 28.6834 13.4185C28.865 13.3813 29.0498 13.3626 29.2351 13.3625C29.7688 13.3626 30.2906 13.5202 30.7351 13.8156C30.7511 13.8262 30.767 13.8369 30.7827 13.8478L28.7582 13.8698C28.671 13.8707 28.5858 13.896 28.5121 13.9427C28.4385 13.9895 28.3793 14.0558 28.3413 14.1344L27.4922 15.8895C27.4614 15.9532 27.4454 16.0229 27.4454 16.0936C27.4454 16.1643 27.4614 16.2341 27.4922 16.2977L28.3409 18.0524C28.3792 18.1315 28.4389 18.1983 28.5133 18.2451C28.5877 18.2919 28.6737 18.3168 28.7616 18.3171L30.8052 18.3229C30.2854 18.6902 29.6536 18.8644 29.019 18.8152C28.3844 18.7661 27.7869 18.4968 27.3298 18.0538C26.8727 17.6108 26.5848 17.0221 26.5158 16.3893C26.4468 15.7566 26.6011 15.1196 26.952 14.5885L26.952 14.588ZM24.9121 15.1594C24.9351 15.1372 24.9557 15.1128 24.9737 15.0864C25.2227 15.0564 25.477 15.0244 25.7322 14.9917C25.5094 15.7022 25.5076 16.4636 25.727 17.1751C25.5473 17.1502 25.3398 17.1234 25.1105 17.0958C25.0965 16.9806 25.0402 16.8748 24.9526 16.7989L24.5591 16.4594C24.5867 16.1444 24.579 15.8273 24.5362 15.5141L24.9121 15.1594ZM16.173 14.2261L16.6105 14.2352C16.688 14.2369 16.7647 14.2193 16.8338 14.184C16.9028 14.1487 16.962 14.0968 17.006 14.033C17.2276 13.7119 17.4979 13.4272 17.807 13.1892C17.8685 13.1419 17.9173 13.08 17.9489 13.0092C17.9806 12.9383 17.9942 12.8607 17.9885 12.7834L17.9573 12.3555L18.6112 12.0657L18.9097 12.3823C18.9642 12.4401 19.0326 12.4831 19.1084 12.5073C19.1841 12.5314 19.2648 12.5359 19.3427 12.5203C19.7201 12.4445 20.1078 12.4351 20.4884 12.4923C20.5666 12.5041 20.6466 12.4958 20.7208 12.4683C20.7949 12.4407 20.861 12.3949 20.9127 12.335L21.198 12.0044L21.8676 12.2664L21.8584 12.7039C21.8568 12.7814 21.8744 12.8581 21.9097 12.9272C21.945 12.9962 21.9969 13.0554 22.0607 13.0994C22.3817 13.321 22.6662 13.5912 22.9041 13.9003C22.9513 13.9618 23.0132 14.0106 23.084 14.0423C23.1549 14.074 23.2325 14.0876 23.3098 14.0818L23.7377 14.0505L24.0276 14.7047L23.7111 15.003C23.6532 15.0576 23.6102 15.1259 23.5861 15.2017C23.5619 15.2774 23.5574 15.358 23.573 15.436C23.6486 15.8134 23.6581 16.2011 23.6009 16.5817C23.5892 16.66 23.5975 16.7399 23.625 16.8141C23.6525 16.8883 23.6983 16.9544 23.7582 17.0061L24.0889 17.2914L23.827 17.9609L23.389 17.9518C23.3115 17.9503 23.2348 17.968 23.1658 18.0033C23.0968 18.0385 23.0376 18.0903 22.9934 18.1541C22.7719 18.4751 22.5017 18.7598 22.1926 18.9978C22.1311 19.0451 22.0823 19.107 22.0507 19.1778C22.019 19.2487 22.0054 19.3263 22.0111 19.4037L22.0423 19.8316L21.3883 20.1213L21.0899 19.8048C21.0354 19.747 20.967 19.704 20.8913 19.6798C20.8155 19.6557 20.7349 19.6512 20.6569 19.6668C20.2795 19.7424 19.8918 19.7519 19.5112 19.6947C19.4329 19.6829 19.3529 19.6912 19.2787 19.7187C19.2045 19.7462 19.1385 19.7921 19.0869 19.852L18.8015 20.1826L18.1319 19.9207L18.1411 19.4832C18.1427 19.4057 18.1251 19.329 18.0898 19.26C18.0545 19.191 18.0026 19.1318 17.9388 19.0877C17.6177 18.8661 17.3331 18.5959 17.0951 18.2868C17.0477 18.2253 16.9859 18.1765 16.915 18.1449C16.8442 18.1132 16.7666 18.0996 16.6892 18.1053L16.2612 18.1366L15.9715 17.4824L16.288 17.1841C16.3458 17.1295 16.3888 17.0612 16.413 16.9854C16.4372 16.9097 16.4417 16.829 16.4261 16.7511C16.3504 16.3737 16.341 15.986 16.3981 15.6054C16.4099 15.5271 16.4016 15.4472 16.3741 15.3729C16.3465 15.2987 16.3007 15.2327 16.2408 15.181L15.9102 14.8957L16.173 14.2261ZM14.8917 15.1044C14.9081 15.2147 14.9633 15.3155 15.0475 15.3886L15.4409 15.7282C15.4134 16.0432 15.4211 16.3602 15.4638 16.6735L15.088 17.028C15.0758 17.04 15.0642 17.0527 15.0534 17.066C14.7722 17.0928 14.5144 17.1194 14.2841 17.1447C14.4882 16.4578 14.4872 15.7262 14.2812 15.0399C14.4843 15.0625 14.6878 15.084 14.8915 15.1044H14.8917ZM12.2758 13.8165C12.5779 14.0128 12.8381 14.267 13.0415 14.5644C13.2449 14.8617 13.3874 15.1964 13.4608 15.5491C13.5343 15.9019 13.5371 16.2656 13.4693 16.6195C13.4015 16.9733 13.2643 17.3102 13.0656 17.6108C12.867 17.9113 12.6108 18.1696 12.3118 18.3707C12.0129 18.5718 11.6771 18.7117 11.3238 18.7824C10.9705 18.853 10.6068 18.8531 10.2535 18.7825C9.90015 18.712 9.56432 18.5721 9.2653 18.3712C9.24968 18.3606 9.23343 18.3498 9.21773 18.339L11.2422 18.317C11.3294 18.3161 11.4146 18.2908 11.4883 18.2441C11.5619 18.1973 11.6211 18.1309 11.6591 18.0524L12.5078 16.2977C12.5386 16.2341 12.5546 16.1643 12.5546 16.0936C12.5546 16.0229 12.5386 15.9532 12.5078 15.8895L11.6591 14.1348C11.6208 14.0557 11.5611 13.989 11.4867 13.9422C11.4123 13.8954 11.3263 13.8704 11.2384 13.8701L9.19476 13.8644C9.64398 13.5477 10.1782 13.3737 10.7278 13.3652C11.2773 13.3566 11.8167 13.5139 12.2755 13.8165H12.2758Z" fill="#312F2F"/>
<path d="M19.99 19.1668C20.7156 19.1668 21.4187 18.9152 21.9796 18.4549C22.5405 17.9946 22.9244 17.354 23.066 16.6424C23.2076 15.9308 23.098 15.192 22.7559 14.5521C22.4139 13.9122 21.8606 13.4107 21.1902 13.133C20.5199 12.8554 19.774 12.8187 19.0796 13.0293C18.3853 13.24 17.7854 13.6848 17.3823 14.2881C16.9792 14.8914 16.7977 15.6158 16.8689 16.3379C16.94 17.06 17.2593 17.7351 17.7723 18.2482C18.0629 18.5403 18.4085 18.7719 18.7892 18.9296C19.1698 19.0873 19.578 19.1679 19.99 19.1668ZM18.4353 14.4758C18.7428 14.1683 19.1346 13.9589 19.5611 13.874C19.9876 13.7892 20.4297 13.8327 20.8315 13.9991C21.2333 14.1656 21.5767 14.4474 21.8183 14.809C22.0599 15.1705 22.1889 15.5957 22.1889 16.0305C22.1889 16.4654 22.0599 16.8905 21.8183 17.2521C21.5767 17.6137 21.2333 17.8955 20.8315 18.0619C20.4297 18.2283 19.9876 18.2719 19.5611 18.187C19.1346 18.1022 18.7428 17.8927 18.4353 17.5852C18.2294 17.382 18.0659 17.14 17.9543 16.8731C17.8428 16.6062 17.7853 16.3198 17.7853 16.0306C17.7853 15.7413 17.8427 15.4549 17.9543 15.188C18.0659 14.9211 18.2293 14.679 18.4352 14.4758H18.4353Z" fill="#312F2F"/>
<path d="M36.25 26.3281V7.85938C36.25 7.12174 35.957 6.41432 35.4354 5.89273C34.9138 5.37115 34.2064 5.07812 33.4688 5.07812H6.55648C5.81216 5.07812 5.09832 5.37381 4.572 5.90013C4.04568 6.42644 3.75 7.14028 3.75 7.88461V26.3281L1.15148 31.5252C1.11352 31.6011 1.09376 31.6848 1.09375 31.7697V32.1406C1.09375 32.5059 1.16569 32.8675 1.30546 33.205C1.44523 33.5424 1.6501 33.849 1.90836 34.1073C2.16662 34.3655 2.47322 34.5704 2.81066 34.7102C3.1481 34.8499 3.50976 34.9219 3.875 34.9219H36.125C36.4902 34.9219 36.8519 34.8499 37.1893 34.7102C37.5268 34.5704 37.8334 34.3655 38.0916 34.1073C38.3499 33.849 38.5548 33.5424 38.6945 33.205C38.8343 32.8675 38.9062 32.5059 38.9062 32.1406V31.7697C38.9062 31.6848 38.8865 31.6011 38.8485 31.5252L36.25 26.3281ZM4.6875 7.85938C4.68771 7.61518 4.73638 7.37345 4.83069 7.1482C4.925 6.92295 5.06308 6.71866 5.23692 6.54716C5.41077 6.37567 5.61692 6.24038 5.84343 6.14913C6.06994 6.05789 6.31231 6.01251 6.55648 6.01562H33.4435C33.6877 6.01251 33.9301 6.05789 34.1566 6.14913C34.3831 6.24038 34.5892 6.37567 34.7631 6.54716C34.9369 6.71866 35.075 6.92295 35.1693 7.1482C35.2636 7.37345 35.3123 7.61518 35.3125 7.85938V26.0938H4.6875V7.85938ZM4.43195 27.0312H35.568L37.6774 31.2145L25.6127 31.2109L25.1439 29.7746C25.0935 29.6163 24.995 29.4777 24.8621 29.3781C24.7292 29.2785 24.5685 29.2228 24.4024 29.2188H15.5967C15.2598 29.2188 15 29.4688 14.8438 29.7884L14.3872 31.1719H2.32273L4.43195 27.0312ZM36.0938 33.9844H3.90625C3.65875 33.989 3.41285 33.9437 3.18327 33.8511C2.95369 33.7585 2.74514 33.6206 2.5701 33.4455C2.39506 33.2705 2.25712 33.0619 2.16453 32.8324C2.07195 32.6028 2.02662 32.3569 2.03125 32.1094H14.7258C14.8244 32.1093 14.9206 32.0782 15.0005 32.0204C15.0804 31.9626 15.1401 31.8811 15.1711 31.7874L15.7105 30.1562H24.2891L24.8288 31.8047C24.8594 31.8993 24.9187 31.9819 24.9986 32.0411C25.0784 32.1003 25.1748 32.133 25.2741 32.1347L37.9688 32.1208C37.9683 32.3663 37.9194 32.6094 37.8248 32.836C37.7303 33.0627 37.592 33.2684 37.4178 33.4415C37.2437 33.6146 37.0371 33.7517 36.8099 33.8448C36.5827 33.938 36.3393 33.9854 36.0938 33.9844Z" fill="#312F2F"/>
<path d="M33.125 7.5H6.79688C6.67255 7.5 6.55333 7.54939 6.46542 7.63729C6.37751 7.7252 6.32812 7.84443 6.32812 7.96875V23.9844C6.32812 24.1087 6.37751 24.2279 6.46542 24.3158C6.55333 24.4037 6.67255 24.4531 6.79688 24.4531H33.125C33.2493 24.4531 33.3685 24.4037 33.4565 24.3158C33.5444 24.2279 33.5938 24.1087 33.5938 23.9844V7.96875C33.5938 7.84443 33.5444 7.7252 33.4565 7.63729C33.3685 7.54939 33.2493 7.5 33.125 7.5ZM32.6562 23.5156H7.26562V8.4375H32.6562V23.5156Z" fill="#312F2F"/>
<path d="M5.47398 27.9688H5.13843C5.01411 27.9688 4.89488 28.0181 4.80697 28.106C4.71906 28.194 4.66968 28.3132 4.66968 28.4375C4.66968 28.5618 4.71906 28.681 4.80697 28.769C4.89488 28.8569 5.01411 28.9062 5.13843 28.9062H5.47398C5.5983 28.9062 5.71753 28.8569 5.80544 28.769C5.89334 28.681 5.94273 28.5618 5.94273 28.4375C5.94273 28.3132 5.89334 28.194 5.80544 28.106C5.71753 28.0181 5.5983 27.9688 5.47398 27.9688Z" fill="#312F2F"/>
<path d="M12.7396 27.9688H7.11461C6.99029 27.9688 6.87106 28.0181 6.78315 28.106C6.69524 28.194 6.64586 28.3132 6.64586 28.4375C6.64586 28.5618 6.69524 28.681 6.78315 28.769C6.87106 28.8569 6.99029 28.9062 7.11461 28.9062H12.7396C12.8639 28.9062 12.9832 28.8569 13.0711 28.769C13.159 28.681 13.2084 28.5618 13.2084 28.4375C13.2084 28.3132 13.159 28.194 13.0711 28.106C12.9832 28.0181 12.8639 27.9688 12.7396 27.9688Z" fill="#312F2F"/>
</svg>
