<svg width="45" height="33" viewBox="0 0 45 33" fill="none" xmlns="http://www.w3.org/2000/svg">
<path d="M38.9187 14.9378C40.2364 13.9067 41.109 12.1914 41.109 10.2581C41.109 7.09528 38.8118 4.53728 35.9715 4.53728C33.1312 4.53728 30.834 7.09528 30.834 10.2581C30.834 12.1914 31.6977 13.9067 33.0243 14.9378C31.8935 15.3741 30.8607 16.0483 29.9881 16.9208C28.7861 15.7806 27.3704 14.9081 25.8211 14.3925C27.6998 13.1234 28.9642 10.8133 28.9642 8.1859C28.9642 4.18035 26.0526 0.938232 22.4555 0.938232C18.8583 0.938232 15.9468 4.19026 15.9468 8.1859C15.9468 10.8133 17.2022 13.1234 19.0898 14.3925C17.5584 14.9081 16.1605 15.7707 14.9674 16.891C14.0948 16.0384 13.0797 15.3741 11.9668 14.9477C13.2845 13.9166 14.1571 12.2014 14.1571 10.268C14.1571 7.10519 11.8599 4.54719 9.01959 4.54719C6.17926 4.54719 3.88207 7.10519 3.88207 10.268C3.88207 12.2014 4.74575 13.9166 6.07242 14.9477C2.53759 16.3061 0 20.0439 0 24.4361V25.0905C0 25.1103 0.0178077 25.1302 0.0356154 25.1302H10.925C10.8627 25.6755 10.8271 26.2406 10.8271 26.8057V27.4799C10.8271 30.3949 12.9462 32.7546 15.5639 32.7546H29.3649C31.9826 32.7546 34.1017 30.3949 34.1017 27.4799V26.8057C34.1017 26.2406 34.0661 25.6755 34.0038 25.1302H44.9644C44.9822 25.1302 45 25.1103 45 25.0905V24.4361C44.9822 20.034 42.4535 16.2961 38.9187 14.9378ZM32.2586 10.2482C32.2586 7.96777 33.9236 6.11372 35.9715 6.11372C38.0194 6.11372 39.6844 7.96777 39.6844 10.2482C39.6844 12.4988 38.055 14.333 36.0427 14.3826C36.016 14.3826 35.9982 14.3826 35.9715 14.3826C35.9448 14.3826 35.927 14.3826 35.9003 14.3826C33.8791 14.3429 32.2586 12.5087 32.2586 10.2482ZM17.3536 8.1859C17.3536 5.06276 19.633 2.52459 22.4377 2.52459C25.2424 2.52459 27.5218 5.06276 27.5218 8.1859C27.5218 11.2 25.3937 13.6687 22.7315 13.8373C22.6336 13.8373 22.5356 13.8373 22.4377 13.8373C22.3397 13.8373 22.2418 13.8373 22.1438 13.8373C19.4816 13.6687 17.3536 11.2 17.3536 8.1859ZM5.27998 10.2482C5.27998 7.96777 6.94499 6.11372 8.99288 6.11372C11.0408 6.11372 12.7058 7.96777 12.7058 10.2482C12.7058 12.4988 11.0764 14.333 9.06411 14.3826C9.0374 14.3826 9.01959 14.3826 8.99288 14.3826C8.96617 14.3826 8.94836 14.3826 8.92165 14.3826C6.90938 14.3429 5.27998 12.5087 5.27998 10.2482ZM11.1743 23.5339H1.44242C1.84309 19.3102 5.04848 15.9987 8.93945 15.969C8.95726 15.969 8.97507 15.969 8.99288 15.969C9.01068 15.969 9.02849 15.969 9.0463 15.969C10.8983 15.9789 12.59 16.7423 13.8989 17.9816C12.6167 19.5283 11.664 21.432 11.1743 23.5339ZM32.6593 27.4799C32.6593 29.5125 31.1723 31.1682 29.3471 31.1682H15.5461C13.7208 31.1682 12.2339 29.5125 12.2339 27.4799V26.8057C12.2339 20.6487 16.6502 15.612 22.1438 15.4336C22.2418 15.4435 22.3486 15.4435 22.4466 15.4435C22.5445 15.4435 22.6514 15.4435 22.7493 15.4336C28.243 15.612 32.6593 20.6487 32.6593 26.8057V27.4799ZM33.7188 23.5339C33.2291 21.4419 32.2942 19.568 31.021 18.0213C32.3387 16.7522 34.0483 15.9888 35.9181 15.969C35.9359 15.969 35.9537 15.969 35.9715 15.969C35.9893 15.969 36.0071 15.969 36.0249 15.969C39.9159 15.9987 43.1213 19.3102 43.522 23.5339H33.7188Z" fill="#312F2F"/>
</svg>
