<svg width="20" height="20" viewBox="0 0 20 20" fill="none" xmlns="http://www.w3.org/2000/svg">
<path d="M9.99999 1.66669C6.77499 1.66669 4.16666 4.27502 4.16666 7.50002C4.16666 11.875 9.99999 18.3334 9.99999 18.3334C9.99999 18.3334 15.8333 11.875 15.8333 7.50002C15.8333 4.27502 13.225 1.66669 9.99999 1.66669ZM9.99999 9.58335C9.44746 9.58335 8.91755 9.36386 8.52685 8.97316C8.13615 8.58246 7.91666 8.05255 7.91666 7.50002C7.91666 6.94749 8.13615 6.41758 8.52685 6.02688C8.91755 5.63618 9.44746 5.41669 9.99999 5.41669C10.5525 5.41669 11.0824 5.63618 11.4731 6.02688C11.8638 6.41758 12.0833 6.94749 12.0833 7.50002C12.0833 8.05255 11.8638 8.58246 11.4731 8.97316C11.0824 9.36386 10.5525 9.58335 9.99999 9.58335Z" fill="#312F2F"/>
</svg>