<svg width="20" height="20" viewBox="0 0 20 20" fill="none" xmlns="http://www.w3.org/2000/svg">
<path d="M4.44445 10.5555V6.11108H2.77778C2.33575 6.11108 1.91183 6.28668 1.59927 6.59924C1.28671 6.9118 1.11111 7.33572 1.11111 7.77775V17.7778C1.11194 17.8809 1.14149 17.9818 1.19643 18.0692C1.25138 18.1565 1.32957 18.2268 1.42223 18.2722C1.51149 18.3128 1.60991 18.329 1.70749 18.3193C1.80507 18.3095 1.89832 18.2741 1.97778 18.2166L4.83889 16.1111H12.3056C12.5161 16.1173 12.7257 16.0802 12.9214 16.0022C13.117 15.9241 13.2946 15.8067 13.443 15.6572C13.5914 15.5077 13.7076 15.3294 13.7843 15.1332C13.861 14.937 13.8966 14.7272 13.8889 14.5166V13.8889H7.77778C6.89373 13.8889 6.04588 13.5377 5.42076 12.9126C4.79564 12.2874 4.44445 11.4396 4.44445 10.5555Z" fill="#312F2F"/>
<path d="M17.2222 2.22223H7.77778C7.33575 2.22223 6.91183 2.39782 6.59927 2.71038C6.28671 3.02295 6.11111 3.44687 6.11111 3.8889V10.5556C6.11111 10.9976 6.28671 11.4215 6.59927 11.7341C6.91183 12.0466 7.33575 12.2222 7.77778 12.2222H15.3056L17.9611 14.2833C18.0401 14.3417 18.1331 14.3781 18.2306 14.3888C18.3282 14.3996 18.4269 14.3843 18.5167 14.3445C18.6112 14.2994 18.6911 14.2286 18.7471 14.1401C18.8032 14.0517 18.833 13.9492 18.8333 13.8445V3.8889C18.8336 3.45633 18.6656 3.04061 18.365 2.7296C18.0643 2.41859 17.6546 2.23665 17.2222 2.22223Z" fill="#312F2F"/>
</svg>