<svg width="35" height="36" viewBox="0 0 35 36" fill="none" xmlns="http://www.w3.org/2000/svg">
<path d="M14.7963 5.15758C15.0141 4.61903 15.3879 4.15783 15.8696 3.83308C16.3513 3.50833 16.919 3.33484 17.5 3.33484C18.081 3.33484 18.6487 3.50833 19.1304 3.83308C19.6121 4.15783 19.9859 4.61903 20.2038 5.15758C22.3603 5.75066 24.2625 7.03526 25.6182 8.81411C26.9739 10.5929 27.7082 12.7677 27.7083 15.0042V21.854L30.38 25.8615C30.5265 26.0812 30.6107 26.3364 30.6235 26.6002C30.6363 26.8639 30.5773 27.1261 30.4527 27.3589C30.3282 27.5917 30.1428 27.7863 29.9163 27.922C29.6898 28.0576 29.4307 28.1293 29.1667 28.1292H22.5531C22.3775 29.3442 21.7701 30.4552 20.8421 31.2587C19.914 32.0623 18.7276 32.5046 17.5 32.5046C16.2724 32.5046 15.086 32.0623 14.1579 31.2587C13.2299 30.4552 12.6225 29.3442 12.4469 28.1292H5.83334C5.56932 28.1293 5.31024 28.0576 5.08374 27.922C4.85724 27.7863 4.67183 27.5917 4.54727 27.3589C4.42272 27.1261 4.36369 26.8639 4.3765 26.6002C4.38931 26.3364 4.47347 26.0812 4.62 25.8615L7.29167 21.854V15.0042C7.29167 10.3026 10.4708 6.34174 14.7963 5.15758ZM15.4379 28.1292C15.5885 28.556 15.8678 28.9256 16.2373 29.187C16.6067 29.4484 17.0482 29.5888 17.5007 29.5888C17.9533 29.5888 18.3947 29.4484 18.7642 29.187C19.1337 28.9256 19.4129 28.556 19.5635 28.1292H15.4365H15.4379ZM17.5 7.71258C15.5661 7.71258 13.7115 8.4808 12.344 9.84826C10.9766 11.2157 10.2083 13.0704 10.2083 15.0042V22.2959C10.2084 22.584 10.1232 22.8656 9.96334 23.1053L8.55896 25.2126H26.4396L25.0352 23.1053C24.8759 22.8654 24.7912 22.5838 24.7917 22.2959V15.0042C24.7917 13.0704 24.0234 11.2157 22.656 9.84826C21.2885 8.4808 19.4339 7.71258 17.5 7.71258Z" fill="white"/>
</svg>