<svg width="25" height="25" viewBox="0 0 25 25" fill="none" xmlns="http://www.w3.org/2000/svg">
<path d="M14.2297 15.8875C12.7928 16.9091 11.0245 17.3536 9.27527 17.1329C7.52605 16.9122 5.92359 16.0424 4.78546 14.6959C3.64732 13.3494 3.05659 11.6245 3.13033 9.86292C3.20406 8.10138 3.93689 6.43183 5.18358 5.18514C6.43026 3.93846 8.09981 3.20563 9.86135 3.13189C11.6229 3.05815 13.3478 3.64889 14.6944 4.78702C16.0409 5.92515 16.9107 7.52762 17.1314 9.27683C17.3521 11.026 16.9076 12.7943 15.8859 14.2313L21.5312 19.875C21.6464 19.9823 21.7387 20.1117 21.8028 20.2554C21.8668 20.3992 21.9013 20.5543 21.904 20.7117C21.9068 20.869 21.8779 21.0253 21.8189 21.1712C21.76 21.3172 21.6723 21.4497 21.561 21.561C21.4497 21.6723 21.3172 21.76 21.1712 21.8189C21.0253 21.8779 20.869 21.9068 20.7117 21.9041C20.5543 21.9013 20.3992 21.8668 20.2554 21.8028C20.1117 21.7387 19.9823 21.6464 19.875 21.5313L14.2297 15.8875ZM14.8438 10.1563C14.8438 8.91305 14.3499 7.72077 13.4708 6.84169C12.5917 5.96261 11.3995 5.46875 10.1563 5.46875C8.91305 5.46875 7.72077 5.96261 6.84169 6.84169C5.96261 7.72077 5.46875 8.91305 5.46875 10.1563C5.46875 11.3995 5.96261 12.5917 6.84169 13.4708C7.72077 14.3499 8.91305 14.8438 10.1563 14.8438C11.3995 14.8438 12.5917 14.3499 13.4708 13.4708C14.3499 12.5917 14.8438 11.3995 14.8438 10.1563Z" fill="#312F2F"/>
</svg>